<svg width="81" height="80" viewBox="0 0 81 80" fill="none" xmlns="http://www.w3.org/2000/svg">
<path d="M40.0479 3.33098C30.4328 3.23327 21.1724 6.95711 14.3018 13.6841C7.43113 20.4111 3.51247 29.5908 3.40701 39.2057C3.44406 46.8042 5.88841 54.1955 10.389 60.318C14.8895 66.4404 21.2147 70.9789 28.456 73.2817C30.2881 73.6148 30.9543 72.5156 30.9543 71.5496C30.9543 70.5836 30.9543 68.4518 30.9543 65.4539C20.7615 67.619 18.5963 60.6572 18.5963 60.6572C17.9178 58.4718 16.4752 56.6036 14.5325 55.3943C11.2015 53.1958 14.799 53.2291 14.799 53.2291C15.9503 53.3831 17.0519 53.7957 18.0211 54.436C18.9902 55.0764 19.8019 55.9278 20.395 56.9265C21.4288 58.719 23.1249 60.034 25.1184 60.5884C27.1119 61.1429 29.2435 60.8925 31.0542 59.8911C31.2404 58.067 32.0665 56.3677 33.3859 55.0945C25.2583 54.1951 16.731 51.1306 16.731 37.3737C16.6583 33.7851 17.9842 30.309 20.4284 27.6805C19.3152 24.5996 19.4467 21.2061 20.7948 18.2205C20.7948 18.2205 23.8926 17.2545 30.7877 21.8846C36.7898 20.2852 43.1061 20.2852 49.1081 21.8846C56.1032 17.2545 59.1011 18.2205 59.1011 18.2205C60.4492 21.2061 60.5806 24.5996 59.4675 27.6805C61.9684 30.2608 63.3663 33.7136 63.3648 37.307C63.3648 51.0973 54.7708 54.1285 46.7098 55.0279C47.5925 55.8848 48.2743 56.9267 48.7063 58.0786C49.1382 59.2305 49.3096 60.4638 49.2081 61.6899V71.5163C49.2081 71.5163 49.8743 73.6148 51.7063 73.2484C58.9271 70.9314 65.231 66.3918 69.7176 60.278C74.2042 54.1642 76.6441 46.789 76.6887 39.2057C76.5832 29.5908 72.6646 20.4111 65.7939 13.6841C58.9233 6.95711 49.6629 3.23327 40.0479 3.33098" fill="#231F20"/>
</svg>
