<svg width="81" height="80" viewBox="0 0 81 80" fill="none" xmlns="http://www.w3.org/2000/svg">
<path d="M70.6549 13.3239C70.6202 13.0179 70.5532 12.7164 70.4551 12.4245V12.1247C70.2954 11.754 70.0696 11.4154 69.7889 11.1255C69.5062 10.8599 69.1793 10.6457 68.8229 10.4926H68.5231C68.2161 10.2581 67.8649 10.0881 67.4905 9.99292H67.3239C66.9927 9.94267 66.6559 9.94267 66.3247 9.99292L6.36691 29.9788C5.70048 30.1979 5.12022 30.6217 4.70886 31.19C4.29749 31.7582 4.07602 32.4418 4.07602 33.1433C4.07602 33.8448 4.29749 34.5284 4.70886 35.0966C5.12022 35.6648 5.70048 36.0887 6.36691 36.3077L34.7802 45.7677L44.2402 74.181C44.4593 74.8475 44.8831 75.4277 45.4513 75.8391C46.0196 76.2504 46.7032 76.4719 47.4047 76.4719C48.1062 76.4719 48.7897 76.2504 49.358 75.8391C49.9262 75.4277 50.35 74.8475 50.5691 74.181L70.555 14.2233C70.6291 13.9294 70.6627 13.6268 70.6549 13.3239V13.3239ZM54.9993 20.9519L36.4457 39.5055L17.8921 33.3098L54.9993 20.9519ZM47.338 62.7557L41.1424 44.2021L59.696 25.6486L47.338 62.7557Z" fill="#231F20"/>
</svg>
