<svg width="16" height="16" viewBox="0 0 16 16" fill="none" xmlns="http://www.w3.org/2000/svg">
<path d="M3.58184 16.0006H0.264581V5.3179H3.58184V16.0006ZM1.92121 3.86071C0.860602 3.86071 0 2.98182 0 1.92121C0 0.860602 0.860031 0 1.92121 0C2.98239 0 3.84242 0.860031 3.84242 1.92121C3.84242 2.98182 2.98182 3.86071 1.92121 3.86071ZM15.9971 16.0006H12.6873V10.8004C12.6873 9.56091 12.6622 7.97171 10.9627 7.97171C9.23804 7.97171 8.97346 9.31805 8.97346 10.7112V16.0006H5.65963V5.3179H8.84089V6.7751H8.88717C9.33005 5.93564 10.4118 5.04989 12.0256 5.04989C15.3828 5.04989 16 7.26083 16 10.1324V16.0006H15.9971Z" fill="black"/>
</svg>
